<svg width="17" height="17" viewBox="0 0 17 17" fill="none" xmlns="http://www.w3.org/2000/svg">
  <g id="log out.icon">
    <g id="Path_1061">
      <path id="Path" d="M10.0316 1.07669V7.62169C9.97965 8.17485 9.51529 8.59763 8.95969 8.59763C8.40408 8.59763 7.93972 8.17485 7.88774 7.62169V1.07669C7.8849 0.781752 8.0087 0.499764 8.22774 0.302243C8.41931 0.107307 8.68166 -0.00172326 8.95497 2.06018e-05C9.54959 2.06018e-05 10.0316 0.482061 10.0316 1.07669Z" fill="#2D3B4E" fill-opacity="0.5"/>
    </g>
    <g id="Path_1062">
      <path id="Path_2" d="M16.919 9.06498C16.9232 10.0876 16.7078 11.1002 16.286 12.0396C15.4834 13.8807 13.9552 15.3445 12.033 16.1132C8.31257 17.6332 3.99317 16.2473 1.97934 12.8875C-0.034493 9.52766 0.89393 5.25613 4.14031 2.94519C4.33685 2.80314 4.57654 2.72661 4.82276 2.7273H4.98101C5.27639 2.76538 5.54172 2.91992 5.71292 3.1536C5.88784 3.38969 5.95233 3.68484 5.89095 3.96831C5.85171 4.25162 5.69481 4.50778 5.45576 4.67881C4.75741 5.1967 4.19235 5.86107 3.80403 6.62085C3.05403 8.05085 2.99976 9.72467 3.65567 11.1965C4.22514 12.5242 5.32571 13.5783 6.71187 14.1238C8.9199 15.0095 11.47 14.4889 13.1091 12.8177C14.7481 11.1466 15.1313 8.67629 14.0705 6.62085C13.6662 5.87038 13.0835 5.22138 12.3693 4.72618C12.1281 4.55423 11.9737 4.29284 11.944 4.0062C11.9049 3.71939 11.9876 3.42955 12.1736 3.20161C12.3595 2.97368 12.6331 2.8267 12.9331 2.79361C13.2325 2.75437 13.5358 2.83298 13.7738 3.0115C14.7473 3.70769 15.5366 4.61299 16.0783 5.65457C16.6328 6.71286 16.9208 7.88088 16.919 9.06498Z" fill="#2D3B4E" fill-opacity="0.5"/>
    </g>
  </g>
</svg>
