<svg width="14" height="17" viewBox="0 0 14 17" fill="none" xmlns="http://www.w3.org/2000/svg">
  <g id="profile icon">
  <path id="Shape" fill-rule="evenodd" clip-rule="evenodd" d="M11.2963 4C11.2963 6.20914 9.43911 8 7.14815 8C4.85719 8 3 6.20914 3 4C3 1.79086 4.85719 0 7.14815 0C9.43911 0 11.2963 1.79086 11.2963 4ZM6.30066 1.96562C5.44558 2.30493 4.88745 3.10837 4.88741 4C4.88736 5.20726 5.89623 6.18902 7.14815 6.2C8.07276 6.20811 8.91102 5.67726 9.27069 4.85585C9.63037 4.03445 9.44032 3.08492 8.78949 2.45158C8.13865 1.81823 7.15574 1.62631 6.30066 1.96562Z" fill="#2D3B4E" fill-opacity="0.5"/>
  <path id="Shape_2" fill-rule="evenodd" clip-rule="evenodd" d="M0 15.5C0.0198416 11.9181 3.02618 9.01914 6.74074 9C10.4715 8.9972 13.503 11.9025 13.523 15.5V16.4H0V15.5ZM6.75889 10.7996C4.41726 10.7996 2.40361 12.3989 1.95481 14.615H11.563C11.1142 12.3989 9.10052 10.7996 6.75889 10.7996Z" fill="#2D3B4E" fill-opacity="0.5"/>
  </g>
</svg>
