<svg width="24" height="24" viewBox="0 0 24 24" fill="none" xmlns="http://www.w3.org/2000/svg">
<path fill-rule="evenodd" clip-rule="evenodd" d="M9.35235 23.9782C9.67487 24.0496 10.0109 23.9432 10.2336 23.6992L12 21.7635L13.7665 23.6992C13.9891 23.9432 14.3252 24.0496 14.6477 23.9782C16.0923 23.6587 17.4592 23.0792 18.6897 22.2723C18.9641 22.0924 19.1223 21.7804 19.1054 21.4528L18.9741 18.909L21.484 19.0358C21.8151 19.0526 22.1297 18.8905 22.3083 18.6112C23.1092 17.3586 23.6776 15.9688 23.9809 14.5024C24.0476 14.1799 23.9375 13.8463 23.6919 13.627L21.8703 12L23.6919 10.3731C23.9375 10.1537 24.0476 9.82012 23.9809 9.49765C23.6776 8.03121 23.1092 6.64144 22.3083 5.38888C22.1297 5.10958 21.8151 4.9475 21.484 4.96423L18.9741 5.09105L19.1054 2.54726C19.1223 2.21963 18.9641 1.90764 18.6897 1.72775C17.4592 0.920874 16.0923 0.341383 14.6477 0.0218127C14.3252 -0.0495346 13.9891 0.0568878 13.7665 0.300879L12 2.2366L10.2336 0.300879C10.0109 0.0568878 9.67487 -0.0495346 9.35235 0.0218127C7.90778 0.341383 6.54081 0.920874 5.3103 1.72775C5.03595 1.90764 4.8777 2.21963 4.89462 2.54726L5.02595 5.09105L2.51604 4.96423C2.18496 4.9475 1.87034 5.10958 1.69176 5.38888C0.890887 6.64144 0.322473 8.03121 0.0191558 9.49765C-0.0475448 9.82012 0.062595 10.1537 0.308193 10.3731L2.12974 12L0.308193 13.627C0.062595 13.8463 -0.0475448 14.1799 0.0191558 14.5024C0.322473 15.9688 0.890887 17.3586 1.69176 18.6112C1.87034 18.8905 2.18496 19.0526 2.51604 19.0358L5.02595 18.909L4.89462 21.4528C4.8777 21.7804 5.03595 22.0924 5.3103 22.2723C6.54081 23.0792 7.90778 23.6587 9.35235 23.9782ZM12.6819 19.7718C12.3158 19.3707 11.6842 19.3707 11.3182 19.7718L9.24027 22.0489C8.37187 21.8095 7.54111 21.4578 6.76641 21.0038L6.92236 17.9831C6.95056 17.4368 6.50023 16.986 5.95393 17.0136L2.97374 17.1642C2.52262 16.3729 2.17669 15.5249 1.94624 14.6393L4.13034 12.6885C4.54123 12.3215 4.54123 11.6786 4.13034 11.3116L1.94624 9.36079C2.17669 8.47512 2.52262 7.62711 2.97374 6.83586L5.95393 6.98645C6.50023 7.01406 6.95056 6.56323 6.92236 6.01696L6.76641 2.99628C7.54111 2.54224 8.37187 2.1905 9.24027 1.95119L11.3182 4.22822C11.6842 4.62936 12.3158 4.62936 12.6819 4.22822L14.7598 1.95119C15.6282 2.1905 16.4589 2.54224 17.2336 2.99628L17.0777 6.01696C17.0495 6.56323 17.4998 7.01406 18.0461 6.98645L21.0263 6.83586C21.4774 7.62711 21.8234 8.47512 22.0538 9.36079L19.8697 11.3116C19.4588 11.6786 19.4588 12.3215 19.8697 12.6885L22.0538 14.6393C21.8234 15.5249 21.4774 16.3729 21.0263 17.1642L18.0461 17.0136C17.4998 16.986 17.0495 17.4368 17.0777 17.9831L17.2336 21.0038C16.4589 21.4578 15.6282 21.8095 14.7598 22.0489L12.6819 19.7718ZM12 16C9.79086 16 8 14.2091 8 12C8 9.79086 9.79086 8 12 8C14.2091 8 16 9.79086 16 12C16 14.2091 14.2091 16 12 16ZM14 12C14 13.1046 13.1046 14 12 14C10.8954 14 10 13.1046 10 12C10 10.8954 10.8954 10 12 10C13.1046 10 14 10.8954 14 12Z" fill="#2D3B4E" fill-opacity="0.5"/>
</svg>
